<svg width="171" height="46" viewBox="0 0 171 46" fill="none" xmlns="http://www.w3.org/2000/svg">
<path d="M117.904 45.0508V23.9944H123.47V27.7094H123.717C124.155 26.4756 124.887 25.5023 125.91 24.7895C126.934 24.0766 128.158 23.7202 129.584 23.7202C131.028 23.7202 132.257 24.0812 133.272 24.8032C134.286 25.516 134.962 26.4848 135.3 27.7094H135.52C135.949 26.5031 136.726 25.5389 137.85 24.8169C138.984 24.0858 140.322 23.7202 141.867 23.7202C143.832 23.7202 145.427 24.3462 146.651 25.5983C147.885 26.8412 148.502 28.605 148.502 30.8898V45.0508H142.676V32.0413C142.676 30.8715 142.365 29.9942 141.744 29.4093C141.122 28.8244 140.345 28.5319 139.413 28.5319C138.353 28.5319 137.526 28.8701 136.932 29.5464C136.338 30.2135 136.041 31.0954 136.041 32.1921V45.0508H130.379V31.9179C130.379 30.8852 130.082 30.0627 129.488 29.4504C128.903 28.8381 128.131 28.5319 127.171 28.5319C126.522 28.5319 125.938 28.6964 125.417 29.0254C124.905 29.3453 124.498 29.7977 124.197 30.3826C123.895 30.9583 123.744 31.6346 123.744 32.4115V45.0508H117.904Z" fill="#282828"/>
<path d="M107.386 45.0507V23.9943H113.226V45.0507H107.386ZM110.32 21.28C109.452 21.28 108.707 20.9921 108.085 20.4163C107.473 19.8314 107.167 19.1323 107.167 18.3189C107.167 17.5147 107.473 16.8247 108.085 16.2489C108.707 15.664 109.452 15.3716 110.32 15.3716C111.188 15.3716 111.928 15.664 112.541 16.2489C113.162 16.8247 113.473 17.5147 113.473 18.3189C113.473 19.1323 113.162 19.8314 112.541 20.4163C111.928 20.9921 111.188 21.28 110.32 21.28Z" fill="#282828"/>
<path d="M103.582 23.9945V28.3812H90.9014V23.9945H103.582ZM93.7802 18.9497H99.62V38.5804C99.62 39.1196 99.7023 39.54 99.8668 39.8416C100.031 40.134 100.26 40.3397 100.552 40.4585C100.854 40.5773 101.201 40.6367 101.594 40.6367C101.868 40.6367 102.142 40.6138 102.417 40.5681C102.691 40.5133 102.901 40.4722 103.047 40.4448L103.966 44.7904C103.673 44.8818 103.262 44.9869 102.732 45.1057C102.202 45.2336 101.557 45.3113 100.799 45.3387C99.3915 45.3936 98.1578 45.2062 97.0976 44.7767C96.0466 44.3471 95.2287 43.68 94.6438 42.7752C94.0589 41.8705 93.771 40.7281 93.7802 39.3481V18.9497Z" fill="#282828"/>
<path d="M74.208 32.8775V45.0508H68.3682V23.9944H73.9338V27.7094H74.1806C74.6467 26.4848 75.4281 25.516 76.5248 24.8032C77.6215 24.0812 78.9512 23.7202 80.514 23.7202C81.9762 23.7202 83.2511 24.0401 84.3387 24.6798C85.4262 25.3195 86.2716 26.2335 86.8747 27.4215C87.4779 28.6005 87.7795 30.0079 87.7795 31.6438V45.0508H81.9397V32.6856C81.9488 31.397 81.6198 30.3917 80.9526 29.6697C80.2855 28.9386 79.367 28.5731 78.1972 28.5731C77.4113 28.5731 76.7167 28.7421 76.1135 29.0803C75.5195 29.4184 75.0534 29.9119 74.7152 30.5608C74.3862 31.2005 74.2172 31.9728 74.208 32.8775Z" fill="#282828"/>
<path d="M54.8927 45.462C52.7268 45.462 50.8624 45.0234 49.2996 44.146C47.746 43.2595 46.5488 42.0075 45.708 40.3898C44.8672 38.7631 44.4468 36.8393 44.4468 34.6185C44.4468 32.4526 44.8672 30.5517 45.708 28.9158C46.5488 27.2799 47.7323 26.005 49.2585 25.0911C50.7938 24.1772 52.5942 23.7202 54.6597 23.7202C56.0488 23.7202 57.342 23.9441 58.5392 24.3919C59.7456 24.8306 60.7965 25.4932 61.6922 26.3797C62.5969 27.2662 63.3006 28.3811 63.8033 29.7246C64.3059 31.0589 64.5573 32.6217 64.5573 34.4129V36.0168H46.7772V32.3977H59.0601C59.0601 31.557 58.8773 30.8121 58.5118 30.1632C58.1462 29.5144 57.639 29.0072 56.9901 28.6416C56.3504 28.2669 55.6056 28.0795 54.7556 28.0795C53.8691 28.0795 53.0832 28.2852 52.3978 28.6964C51.7215 29.0985 51.1914 29.6423 50.8076 30.3277C50.4237 31.004 50.2272 31.758 50.2181 32.5897V36.0305C50.2181 37.0724 50.41 37.9726 50.7939 38.7311C51.1868 39.4897 51.7397 40.0746 52.4526 40.4858C53.1654 40.8971 54.0108 41.1027 54.9887 41.1027C55.6375 41.1027 56.2316 41.0113 56.7708 40.8285C57.31 40.6457 57.7715 40.3716 58.1554 40.006C58.5392 39.6404 58.8316 39.1926 59.0327 38.6626L64.4339 39.019C64.1597 40.3167 63.5977 41.45 62.7477 42.4187C61.9069 43.3783 60.8194 44.1277 59.4851 44.6669C58.1599 45.197 56.6291 45.462 54.8927 45.462Z" fill="#282828"/>
<path d="M42.9867 23.9941L35.6252 45.0505H29.0451L21.6836 23.9941H27.8525L32.2255 39.0599H32.4448L36.8042 23.9941H42.9867Z" fill="#282828"/>
<path d="M10.4459 45.462C8.27998 45.462 6.41562 45.0234 4.85284 44.146C3.2992 43.2595 2.10198 42.0075 1.26119 40.3898C0.420397 38.7631 0 36.8393 0 34.6185C0 32.4526 0.420397 30.5517 1.26119 28.9158C2.10198 27.2799 3.28549 26.005 4.81171 25.0911C6.34707 24.1772 8.14747 23.7202 10.2129 23.7202C11.602 23.7202 12.8952 23.9441 14.0924 24.3919C15.2988 24.8306 16.3498 25.4932 17.2454 26.3797C18.1502 27.2662 18.8539 28.3811 19.3565 29.7246C19.8592 31.0589 20.1105 32.6217 20.1105 34.4129V36.0168H2.33046V32.3977H14.6133C14.6133 31.557 14.4306 30.8121 14.065 30.1632C13.6994 29.5144 13.1922 29.0072 12.5434 28.6416C11.9036 28.2669 11.1588 28.0795 10.3089 28.0795C9.42237 28.0795 8.63641 28.2852 7.95098 28.6964C7.27469 29.0985 6.74462 29.6423 6.36078 30.3277C5.97694 31.004 5.78045 31.758 5.77131 32.5897V36.0305C5.77131 37.0724 5.96323 37.9726 6.34707 38.7311C6.74005 39.4897 7.29297 40.0746 8.00581 40.4858C8.71866 40.8971 9.56402 41.1027 10.5419 41.1027C11.1908 41.1027 11.7848 41.0113 12.324 40.8285C12.8632 40.6457 13.3247 40.3716 13.7086 40.006C14.0924 39.6404 14.3849 39.1926 14.5859 38.6626L19.9871 39.019C19.7129 40.3167 19.1509 41.45 18.301 42.4187C17.4602 43.3783 16.3726 44.1277 15.0383 44.6669C13.7132 45.197 12.1824 45.462 10.4459 45.462Z" fill="#282828"/>
<path d="M156.018 0.461914L157.585 7.75726C158.179 10.5237 160.34 12.6847 163.106 13.2788L170.402 14.8454L163.106 16.412C160.34 17.006 158.179 19.167 157.585 21.9335L156.018 29.2288L154.452 21.9335C153.858 19.167 151.697 17.006 148.93 16.412L141.635 14.8454L148.93 13.2788C151.697 12.6847 153.858 10.5237 154.452 7.75727L156.018 0.461914Z" fill="#D31F37"/>
</svg>
